<svg width="73" height="68" viewBox="0 0 73 68" fill="none" xmlns="http://www.w3.org/2000/svg">
<rect width="73" height="68" rx="20" fill="#E6F2E5"/>
<path d="M30.4167 53.3333H41.9167C51.5 53.3333 55.3333 49.5 55.3333 39.9167V28.4167C55.3333 18.8333 51.5 15 41.9167 15H30.4167C20.8333 15 17 18.8333 17 28.4167V39.9167C17 49.5 20.8333 53.3333 30.4167 53.3333Z" stroke="#62BEAC" stroke-width="4" stroke-linecap="round" stroke-linejoin="round"/>
<path d="M36.1667 40.875C37.0476 40.875 37.9199 40.7015 38.7338 40.3644C39.5477 40.0273 40.2873 39.5331 40.9102 38.9102C41.5331 38.2873 42.0272 37.5478 42.3644 36.7339C42.7015 35.92 42.875 35.0477 42.875 34.1667C42.875 33.2858 42.7015 32.4134 42.3644 31.5995C42.0272 30.7856 41.5331 30.0461 40.9102 29.4232C40.2873 28.8003 39.5477 28.3061 38.7338 27.969C37.9199 27.6319 37.0476 27.4584 36.1667 27.4584C34.3875 27.4584 32.6812 28.1651 31.4232 29.4232C30.1651 30.6813 29.4583 32.3875 29.4583 34.1667C29.4583 35.9459 30.1651 37.6522 31.4232 38.9102C32.6812 40.1683 34.3875 40.875 36.1667 40.875Z" stroke="#62BEAC" stroke-width="3" stroke-linecap="round" stroke-linejoin="round"/>
<path d="M46.969 24.5834H46.9915" stroke="#62BEAC" stroke-width="4" stroke-linecap="round" stroke-linejoin="round"/>
</svg>
