<svg width="73" height="68" viewBox="0 0 73 68" fill="none" xmlns="http://www.w3.org/2000/svg">
<rect width="73" height="68" rx="20" fill="#E6F2E5"/>
<path d="M36.5 37C37.2223 37 37.9375 36.8448 38.6048 36.5433C39.2721 36.2417 39.8784 35.7998 40.3891 35.2426C40.8998 34.6855 41.3049 34.0241 41.5813 33.2961C41.8577 32.5681 42 31.7879 42 31C42 30.2121 41.8577 29.4319 41.5813 28.7039C41.3049 27.9759 40.8998 27.3145 40.3891 26.7574C39.8784 26.2002 39.2721 25.7583 38.6048 25.4567C37.9375 25.1552 37.2223 25 36.5 25C35.0413 25 33.6424 25.6321 32.6109 26.7574C31.5795 27.8826 31 29.4087 31 31C31 32.5913 31.5795 34.1174 32.6109 35.2426C33.6424 36.3679 35.0413 37 36.5 37Z" stroke="#62BEAC" stroke-width="3"/>
<path d="M20.4645 27.334C24.2342 10.876 48.785 10.895 52.5355 27.353C54.7361 37.0073 48.6893 45.1793 43.3888 50.2345C41.5366 52.0086 39.0637 53 36.4905 53C33.9172 53 31.4443 52.0086 29.5921 50.2345C24.3108 45.1793 18.2639 36.9883 20.4645 27.334Z" stroke="#62BEAC" stroke-width="4"/>
</svg>
