<svg width="73" height="68" viewBox="0 0 73 68" fill="none" xmlns="http://www.w3.org/2000/svg">
<rect width="73" height="68" rx="20" fill="#E6F2E5"/>
<path d="M41 29.3833V34.7H45.7667C46.1333 34.7 46.3167 35.0666 46.3167 35.4333L45.5833 38.9166C45.5833 39.1 45.2167 39.2833 45.0333 39.2833H41V52.6666H35.5V39.4666H32.3833C32.0167 39.4666 31.8333 39.2833 31.8333 38.9166V35.4333C31.8333 35.0666 32.0167 34.8833 32.3833 34.8833H35.5V28.8333C35.5 25.7166 37.8833 23.3333 41 23.3333H45.95C46.3167 23.3333 46.5 23.5166 46.5 23.8833V28.2833C46.5 28.65 46.3167 28.8333 45.95 28.8333H41.55C41.1833 28.8333 41 29.0166 41 29.3833Z" stroke="#62BEAC" stroke-width="3" stroke-miterlimit="10" stroke-linecap="round"/>
<path d="M42.8333 52.6667H31.8333C22.6667 52.6667 19 49 19 39.8333V28.8333C19 19.6667 22.6667 16 31.8333 16H42.8333C52 16 55.6667 19.6667 55.6667 28.8333V39.8333C55.6667 49 52 52.6667 42.8333 52.6667Z" stroke="#62BEAC" stroke-width="4" stroke-linecap="round" stroke-linejoin="round"/>
</svg>
