<svg width="73" height="68" viewBox="0 0 73 68" fill="none" xmlns="http://www.w3.org/2000/svg">
<rect width="73" height="68" rx="20" fill="#E6F2E5"/>
<path d="M27.065 50.41C29.84 52.075 33.17 53 36.5 53C46.675 53 55 44.675 55 34.5C55 24.325 46.675 16 36.5 16C26.325 16 18 24.325 18 34.5C18 37.83 18.925 40.975 20.405 43.75L18.814 49.8661C18.7319 50.1818 18.7348 50.5137 18.8223 50.8279C18.9099 51.1422 19.0789 51.4277 19.3124 51.6556C19.5459 51.8834 19.8355 52.0455 20.1518 52.1253C20.4681 52.2052 20.7999 52.1999 21.1136 52.1101L27.065 50.41Z" stroke="#62BEAC" stroke-width="4" stroke-miterlimit="10" stroke-linecap="round" stroke-linejoin="round"/>
<path d="M44.825 39.7688C44.825 40.0685 44.7584 40.3775 44.616 40.6772C44.4706 40.9869 44.2798 41.2731 44.0499 41.5263C43.641 41.9759 43.1915 42.2996 42.6809 42.5087C42.1814 42.7177 41.6393 42.825 41.0566 42.825C40.2056 42.825 39.2972 42.6252 38.3371 42.2182C37.322 41.7782 36.3601 41.2246 35.4696 40.568C34.5011 39.8606 33.5871 39.0814 32.7353 38.237C31.8925 37.39 31.1151 36.4802 30.4098 35.5157C29.7616 34.633 29.2131 33.6812 28.7744 32.6778C28.3748 31.725 28.175 30.8185 28.175 29.9546C28.175 29.3885 28.2749 28.8483 28.4747 28.3488C28.6745 27.84 28.9927 27.3738 29.4349 26.9576C29.9677 26.4322 30.5504 26.175 31.1683 26.175C31.4014 26.175 31.6345 26.225 31.8436 26.3249C32.06 26.4248 32.2506 26.5746 32.4023 26.7911L34.3374 29.5143C34.4854 29.7215 34.5964 29.9139 34.6704 30.097C34.7444 30.2709 34.7869 30.4467 34.7869 30.6039C34.7845 30.8138 34.7237 31.0188 34.6112 31.1959C34.4827 31.4125 34.3259 31.611 34.145 31.7861L33.5104 32.4447C33.4663 32.4879 33.4316 32.5398 33.4087 32.5972C33.3858 32.6545 33.375 32.716 33.3772 32.7777C33.3772 32.8424 33.3865 32.9016 33.4031 32.9682C33.4272 33.0348 33.4531 33.0848 33.4697 33.1347C33.6177 33.4104 33.8767 33.7674 34.2449 34.2003C34.6204 34.6332 35.02 35.0754 35.4529 35.5157C35.9043 35.9578 36.3372 36.3648 36.7794 36.7404C37.2123 37.1048 37.5712 37.3546 37.8542 37.5044L38.0059 37.5729C38.0724 37.5966 38.1426 37.6079 38.2131 37.6062C38.2769 37.6076 38.3403 37.5956 38.3993 37.5711C38.4582 37.5466 38.5114 37.51 38.5554 37.4637L39.1881 36.8384C39.3971 36.6312 39.5969 36.474 39.7893 36.3722C39.9663 36.2595 40.1715 36.1992 40.3813 36.1983C40.5564 36.2009 40.7293 36.238 40.8901 36.3075C41.0732 36.3815 41.2656 36.4888 41.4728 36.6312L44.233 38.5885C44.433 38.7187 44.5921 38.9027 44.6918 39.1195C44.7783 39.3251 44.8236 39.5458 44.825 39.7688Z" stroke="#62BEAC" stroke-width="3" stroke-miterlimit="10"/>
</svg>
