<svg width="204" height="204" viewBox="0 0 204 204" fill="none" xmlns="http://www.w3.org/2000/svg">
<rect width="204" height="204" rx="20" fill="#E6F5E7"/>
<path d="M91.5013 42.1981C90.9356 42.1774 90.3614 42.375 89.9086 42.7799L77.8697 53.5888C77.3828 54.0172 77.0996 54.6315 77.0913 55.2799V76.4318H60.1178C59.3099 76.4318 58.4044 76.6155 57.6304 77.1251C56.8564 77.6351 56.341 78.4058 56.0422 79.1517C55.4448 80.6436 55.4159 82.1538 55.4159 84.14C55.4159 86.1261 55.4453 87.6365 56.0422 89.1283C56.4542 90.3163 57.2428 90.8089 58.0152 91.3921C57.8214 92.0499 57.7497 92.7596 57.8496 93.4902L58.7935 100.397L57.5185 106.173H52.0158V101.234C52.0112 99.9754 50.993 98.9571 49.7342 98.9527H40.0977C38.8323 98.9481 37.8027 99.9687 37.7982 101.234V112.029L37.0197 112.262C35.8574 112.611 35.1655 113.802 35.445 114.982L37.3687 123.107C35.1505 123.522 33.5041 125.622 33.7226 127.934C35.0135 141.598 36.269 155.281 37.8161 168.954C37.896 169.754 38.0987 170.517 38.4066 171.222H37.6774C36.4123 171.227 35.3908 172.256 35.3958 173.522C35.4004 174.78 36.4193 175.798 37.6774 175.803H155.735C156.993 175.799 158.012 174.78 158.017 173.522C158.022 172.256 157 171.227 155.735 171.222H150.515C150.621 171.16 150.728 171.096 150.832 171.034C155.504 168.219 156.818 164.264 156.818 161.684V155.85C157.173 155.692 157.505 155.531 157.816 155.363C159.182 154.625 160.181 153.745 160.791 152.724C161.4 151.702 161.551 150.607 161.551 149.865V147.516C161.551 145.021 160.217 142.807 158.232 141.557C158.837 140.522 159.185 139.32 159.185 138.045C159.185 135.973 158.266 134.1 156.818 132.811V126.23C156.818 123.65 155.795 118.886 151.172 114.764C146.549 110.642 138.541 107.373 124.978 107.373C118.23 107.373 112.856 108.186 108.586 109.507L110.573 93.4596C110.664 92.7254 110.599 92.0307 110.416 91.3883C111.402 90.9503 111.986 89.9245 112.38 89.1289C112.977 87.6371 113.006 86.127 113.006 84.1409C113.006 82.1547 112.98 80.6444 112.38 79.1525C112.081 78.4063 111.566 77.6359 110.792 77.126C110.018 76.6161 109.112 76.4325 108.304 76.4325H91.3132V61.1456L100.176 53.4509C101.178 52.58 101.23 51.0437 100.292 50.1043L93.0535 42.8655C92.6237 42.4364 92.0669 42.214 91.5013 42.1981ZM146.014 44.6409C129.315 44.6409 115.731 58.2242 115.731 74.9238C115.731 91.6233 129.315 105.211 146.014 105.211C162.714 105.211 176.297 91.6233 176.297 74.9238C176.297 58.2242 162.714 44.6409 146.014 44.6409ZM91.3491 47.6518L95.3039 51.6067L87.5241 58.3709C87.0221 58.8034 86.7351 59.435 86.7322 60.0978V76.4314H81.6769V56.3084L91.3491 47.6518ZM146.014 49.2265C160.238 49.2265 171.716 60.7 171.716 74.9238C171.716 89.1474 160.238 100.626 146.014 100.626C131.79 100.626 120.312 89.1474 120.312 74.9238C120.312 60.7 131.79 49.2265 146.014 49.2265ZM146.014 54.3803C134.692 54.3804 125.471 63.6021 125.471 74.9328C125.497 80.3143 127.625 85.4608 131.403 89.2801C132.469 90.3593 134.27 90.1234 135.022 88.8055L152.541 58.4554C153.284 57.1548 152.599 55.5029 151.154 55.1091C149.487 54.6524 147.774 54.407 146.045 54.3801C146.034 54.3801 146.024 54.3803 146.014 54.3803ZM146.004 58.948C146.311 58.9525 146.594 59.0607 146.89 59.0821L133.263 82.6678C131.785 80.2239 130.051 77.8242 130.051 74.9147C130.061 66.0756 137.163 58.9569 146.004 58.948ZM159.22 59.9009C159.046 59.8801 158.87 59.8802 158.696 59.9078C157.989 59.9976 157.36 60.4108 157.001 61.0262L139.486 91.3942C138.743 92.6893 139.417 94.3378 140.855 94.7406C142.523 95.1973 144.248 95.4426 145.995 95.4695C157.335 95.4694 166.557 86.2454 166.557 74.917C166.53 69.5377 164.398 64.389 160.62 60.5697C160.246 60.1897 159.75 59.9547 159.22 59.9009ZM158.764 67.1662C160.246 69.6157 161.96 72.0317 161.976 74.9417C161.966 83.7739 154.863 90.8771 146.031 90.8863C145.728 90.8816 145.439 90.7736 145.136 90.7521L158.764 67.1662ZM60.2692 81.0125H108.152C108.26 81.3483 108.425 82.4016 108.425 84.1398C108.425 85.8692 108.259 86.9242 108.152 87.2668H60.2697C60.1618 86.9241 59.9968 85.8692 59.9968 84.1398C59.9968 82.4016 60.1612 81.3484 60.2692 81.0125ZM63.7364 91.8524H104.689C105.451 91.8524 106.077 92.4605 106.022 92.8993L103.723 111.443C101.75 112.438 100.115 113.563 98.7704 114.763C94.1471 118.885 93.12 123.649 93.12 126.229V132.81C91.6719 134.099 90.7534 135.972 90.7534 138.044C90.7535 139.319 91.1059 140.521 91.7108 141.556C89.7252 142.802 88.3868 145.005 88.3868 147.497V149.864C88.3868 150.826 88.7108 152.368 89.8095 153.604C90.5939 154.486 91.6614 155.217 93.12 155.854V161.683C93.12 164.263 94.434 168.219 99.1059 171.034C99.2097 171.096 99.3167 171.16 99.4236 171.221H78.885C79.1929 170.516 79.3955 169.753 79.4756 168.953C80.9254 155.302 82.3695 141.656 83.5691 127.951C83.7647 125.996 82.6201 124.194 80.9295 123.424V110.875C80.9249 109.61 79.8954 108.584 78.63 108.589H72.5412L73.6597 103.229C73.9157 101.998 73.131 100.793 71.9015 100.527L63.1642 98.5854L62.3813 92.8635C62.3536 92.6603 62.4045 92.5305 62.6542 92.2914C62.9044 92.0524 63.3569 91.8524 63.7364 91.8524ZM88.8968 95.8564C87.6283 95.8588 86.6033 96.8919 86.6107 98.1605V107.779C86.6061 109.046 87.63 110.076 88.8968 110.078C90.1688 110.083 91.2013 109.051 91.1963 107.779V98.1605C91.2032 96.8867 90.1706 95.8515 88.8968 95.8564ZM98.5333 95.8564C97.2665 95.8611 96.2443 96.8936 96.2517 98.1605V102.961C96.2471 104.226 97.2682 105.255 98.5333 105.26C99.8053 105.265 100.838 104.233 100.833 102.961V98.1605C100.84 96.8867 99.8071 95.8515 98.5333 95.8564ZM62.8551 103.216L68.7067 104.518L64.0943 126.725C63.2564 126.985 62.431 127.213 61.6561 127.396V108.718L62.8551 103.216ZM42.3787 103.534H47.434V109.162L42.3787 110.665V103.534ZM52.0152 110.754H57.0705V127.688C55.6166 127.442 53.7892 126.94 52.0152 126.341V110.754ZM124.978 111.958C137.81 111.958 144.568 115.005 148.125 118.176C151.682 121.348 152.236 124.879 152.236 126.229V131.03H97.7058V126.229C97.7058 124.879 98.2554 121.348 101.813 118.176C105.37 115.005 112.146 111.958 124.978 111.958ZM71.5923 113.157H76.3479V123.03L73.8605 123.058C73.4607 123.023 73.0596 123.099 72.6973 123.273C72.6973 123.273 71.2299 123.99 69.1541 124.861L71.5923 113.157ZM47.434 113.945V124.561C45.7416 123.831 44.5932 123.268 44.5932 123.268C44.2429 123.097 43.8549 123.019 43.4658 123.041C43.4019 123.034 43.3375 123.034 43.2734 123.034H42.048L40.4017 116.031L47.434 113.945ZM126.163 115.658C125.862 115.656 125.564 115.714 125.285 115.827C125.007 115.941 124.753 116.108 124.539 116.32L122.173 118.687C121.959 118.899 121.789 119.152 121.673 119.431C121.557 119.71 121.497 120.009 121.497 120.311C121.497 120.612 121.557 120.911 121.673 121.19C121.789 121.469 121.959 121.722 122.173 121.934C122.385 122.148 122.638 122.317 122.916 122.433C123.195 122.548 123.493 122.608 123.794 122.608C124.096 122.608 124.394 122.548 124.672 122.433C124.951 122.317 125.203 122.148 125.416 121.934L127.769 119.563C127.983 119.351 128.152 119.098 128.267 118.82C128.383 118.541 128.442 118.243 128.442 117.942C128.442 117.64 128.383 117.342 128.267 117.064C128.152 116.786 127.983 116.533 127.769 116.32C127.342 115.897 126.765 115.659 126.163 115.658ZM115.511 119.21C114.904 119.206 114.32 119.442 113.887 119.868L111.534 122.239C111.321 122.452 111.151 122.705 111.036 122.983C110.92 123.261 110.861 123.559 110.861 123.861C110.861 124.162 110.92 124.46 111.036 124.739C111.151 125.017 111.321 125.27 111.534 125.483C111.963 125.909 112.544 126.149 113.149 126.149C113.754 126.149 114.335 125.909 114.764 125.483L117.131 123.116C117.345 122.903 117.515 122.65 117.63 122.371C117.746 122.092 117.806 121.794 117.806 121.492C117.806 121.19 117.746 120.891 117.63 120.613C117.515 120.334 117.345 120.081 117.131 119.868C116.699 119.443 116.117 119.207 115.511 119.21ZM136.797 119.21C136.19 119.206 135.606 119.442 135.173 119.868L132.807 122.239C132.594 122.452 132.424 122.705 132.309 122.983C132.193 123.261 132.134 123.559 132.134 123.861C132.134 124.162 132.193 124.46 132.309 124.739C132.424 125.017 132.594 125.27 132.807 125.483C133.02 125.697 133.273 125.866 133.552 125.982C133.83 126.098 134.129 126.158 134.431 126.158C134.733 126.158 135.032 126.098 135.31 125.982C135.589 125.866 135.842 125.697 136.055 125.483L138.422 123.116C138.636 122.903 138.805 122.65 138.921 122.371C139.037 122.092 139.097 121.794 139.097 121.492C139.097 121.19 139.037 120.891 138.921 120.613C138.805 120.334 138.636 120.081 138.422 119.868C137.989 119.442 137.404 119.206 136.797 119.21ZM38.2852 127.612H43.0676C43.946 128.032 45.9402 128.959 48.3153 129.88C51.5229 131.124 55.3121 132.435 58.6453 132.435C61.9784 132.435 65.7676 131.124 68.9752 129.88C71.3503 128.959 73.3445 128.032 74.2229 127.612H79.0053C78.6464 131.71 78.2585 135.809 77.8601 139.906H64.985C63.2499 138.36 60.9905 137.491 58.6457 137.49C56.3013 137.491 54.0517 138.36 52.3198 139.906H39.4533C39.0622 135.811 38.6724 131.711 38.2852 127.612ZM97.7728 135.611H152.169C153.543 135.611 154.603 136.671 154.603 138.045C154.603 139.419 153.543 140.483 152.169 140.483H123.797C123.297 140.481 122.81 140.64 122.41 140.939L114.326 147.005L106.242 140.939C105.846 140.643 105.366 140.484 104.873 140.483H97.7728C96.3987 140.483 95.3391 139.419 95.339 138.045C95.339 136.671 96.3987 135.611 97.7728 135.611ZM58.5155 142.071C58.5593 142.07 58.6014 142.071 58.6452 142.071C60.0505 142.072 61.3947 142.679 62.3315 143.726C62.8435 144.292 63.6033 144.565 64.3582 144.455L77.4081 144.49C76.8384 150.189 76.244 155.888 75.641 161.589H41.6275C41.0186 155.896 40.4488 150.195 39.8961 144.49L52.964 144.476C53.7174 144.576 54.4716 144.297 54.9771 143.729C55.8845 142.714 57.1588 142.109 58.5155 142.071ZM95.4195 145.064H104.112L112.957 151.708C113.773 152.323 114.897 152.323 115.713 151.708L124.557 145.064H152.169H154.536C155.926 145.064 156.97 146.125 156.97 147.516V149.864C156.97 150.128 156.949 150.206 156.849 150.374C156.749 150.543 156.495 150.88 155.65 151.336C153.961 152.249 150.065 153.39 142.631 154.043C141.401 154.084 140.423 155.094 140.417 156.324V159.098C140.417 160.678 139.313 161.769 137.983 161.769C136.653 161.769 135.545 160.678 135.545 159.098V152.302C135.55 151.03 134.517 149.998 133.245 150.003C131.98 150.008 130.959 151.037 130.964 152.302V154.615C129.097 154.65 127.107 154.671 124.978 154.671C108.995 154.671 100.536 153.517 96.4532 152.219C94.4117 151.57 93.5256 150.899 93.2232 150.559C92.9208 150.219 92.9681 150.214 92.9681 149.866V147.499C92.9681 146.109 94.029 145.064 95.4195 145.064ZM97.7057 157.286C102.988 158.483 111.316 159.25 124.978 159.25C127.104 159.25 129.093 159.237 130.968 159.195C131.02 163.074 134.105 166.349 137.983 166.349C141.893 166.349 144.998 163.019 144.998 159.097V158.416C147.908 158.109 150.283 157.734 152.236 157.293V161.682C152.236 163.032 151.974 164.994 148.465 167.109C144.956 169.223 137.947 171.22 124.978 171.22C112.009 171.22 104.986 169.223 101.477 167.109C97.9683 164.994 97.7057 163.032 97.7057 161.682V157.286ZM42.1237 166.167H75.1579L74.9118 168.498C74.7547 170.068 73.4793 171.222 71.901 171.222H45.39C43.8116 171.222 42.5362 170.068 42.3791 168.498L42.1237 166.167Z" fill="#278D79"/>
</svg>
