<svg width="204" height="204" viewBox="0 0 204 204" fill="none" xmlns="http://www.w3.org/2000/svg">
<rect width="204" height="204" rx="20" fill="#E6F5E7"/>
<g clip-path="url(#clip0_36_55)">
<path d="M143.263 67.1781H120.381V51.9238C120.381 47.7288 116.949 44.2966 112.754 44.2966H82.2458C78.0509 44.2966 74.6187 47.7288 74.6187 51.9238V67.1781H51.7374C43.3476 67.1781 36.4833 74.0425 36.4833 82.4324V143.449C36.4833 151.839 43.3476 158.703 51.7374 158.703H143.263C151.652 158.703 158.517 151.839 158.517 143.449V82.4324C158.517 74.0425 151.652 67.1781 143.263 67.1781ZM82.2458 51.9238H112.754V67.1781H82.2458V51.9238ZM128.008 120.568H105.127V143.449H89.8729V120.568H66.9916V105.313H89.8729V82.4324H105.127V105.313H128.008V120.568Z" fill="#278D79"/>
</g>
<defs>
<clipPath id="clip0_36_55">
<rect width="159" height="159" fill="white" transform="translate(18 22)"/>
</clipPath>
</defs>
</svg>
