<svg width="204" height="204" viewBox="0 0 204 204" fill="none" xmlns="http://www.w3.org/2000/svg">
<rect width="204" height="204" rx="20" fill="#E6F5E7"/>
<g clip-path="url(#clip0_36_54)">
<path d="M144.322 139.588L113.294 125.688V123.562H116.059C118.982 123.563 121.874 122.963 124.556 121.802C127.238 120.64 129.653 118.941 131.652 116.809C133.652 114.677 135.193 112.158 136.18 109.407C137.168 106.656 137.581 103.732 137.394 100.816C136.203 82.225 135.953 77.175 135.953 76.2125C136.352 69.4165 134.439 62.6856 130.525 57.1156L135.781 47.9156C136.069 47.4117 136.16 46.8189 136.036 46.252C135.911 45.6851 135.581 45.1844 135.109 44.8469C134.319 44.2813 115.566 31 99.45 31C83.3344 31 64.5813 44.2813 63.7906 44.8469C63.3197 45.1853 62.9906 45.686 62.8666 46.2525C62.7425 46.819 62.8324 47.4114 63.1187 47.9156L68.375 57.1156C64.4609 62.6856 62.5477 69.4165 62.9469 76.2125C62.9469 77.0188 62.7594 81.2844 61.5094 100.816C61.3218 103.732 61.7343 106.656 62.7214 109.407C63.7086 112.158 65.2493 114.677 67.2485 116.809C69.2477 118.941 71.6628 120.64 74.3447 121.802C77.0265 122.963 79.918 123.563 82.8406 123.562H85.6531V125.703L55.5219 139.55C52.3986 140.992 49.7529 143.297 47.8969 146.194C46.0409 149.09 45.052 152.457 45.0469 155.897V178.656C45.0469 179.278 45.2938 179.874 45.7333 180.314C46.1729 180.753 46.769 181 47.3906 181C48.0122 181 48.6084 180.753 49.0479 180.314C49.4874 179.874 49.7344 179.278 49.7344 178.656V155.897C49.7387 153.354 50.4704 150.864 51.843 148.723C53.2156 146.582 55.172 144.878 57.4813 143.812L87.1156 130.191L97.5 146.575C97.7113 146.909 98.0038 147.185 98.3502 147.376C98.6966 147.567 99.0857 147.667 99.4812 147.667C99.8768 147.667 100.266 147.567 100.612 147.376C100.959 147.185 101.251 146.909 101.463 146.575L111.85 130.175L142.409 143.866C144.749 144.916 146.735 146.621 148.128 148.773C149.522 150.926 150.264 153.436 150.266 156V178.656C150.266 179.278 150.513 179.874 150.952 180.314C151.392 180.753 151.988 181 152.609 181C153.231 181 153.827 180.753 154.267 180.314C154.706 179.874 154.953 179.278 154.953 178.656V156C154.95 152.531 153.945 149.137 152.059 146.225C150.173 143.314 147.486 141.009 144.322 139.588ZM80.7562 101.463C84.7031 99.6531 93.7531 95.8125 99.5062 95.8125C105.259 95.8125 114.259 99.6469 118.2 101.456C116.547 105.028 113.906 108.052 110.589 110.172C107.273 112.291 103.419 113.418 99.4828 113.418C95.5468 113.418 91.693 112.291 88.3764 110.172C85.0598 108.052 82.4189 105.028 80.7656 101.456L80.7562 101.463ZM78.8219 92.7969V79.3594C78.8594 77.8344 79.5125 73.1344 81.8937 71.5875C84.4057 69.9372 86.7745 68.0786 88.975 66.0312C92.0369 69.6898 96.0135 72.4716 100.5 74.0938C106.815 76.3022 113.641 76.6022 120.125 74.9562V92.7938C120.126 94.2006 119.982 95.6037 119.697 96.9813C115.234 94.9562 105.947 91.1219 99.4969 91.1219C93.0469 91.1219 83.7156 94.9656 79.2531 96.9906C78.9664 95.6101 78.8219 94.2069 78.8219 92.7969ZM82.8406 118.878C80.5586 118.879 78.3008 118.411 76.2067 117.504C74.1126 116.597 72.2267 115.271 70.6656 113.606C69.1045 111.942 67.9014 109.975 67.1306 107.827C66.3598 105.679 66.0378 103.396 66.1844 101.119C67.1437 86.1187 67.6344 77.7469 67.6344 76.2156C67.6344 65.5156 71.4688 60.6063 72.5156 59.4656C73.3906 59.1719 75.4656 58.5281 78.3938 57.8031C78.9979 57.6564 79.5191 57.2757 79.8426 56.7448C80.1661 56.2138 80.2654 55.5761 80.1188 54.9719C79.9721 54.3677 79.5913 53.8465 79.0604 53.523C78.5294 53.1995 77.8917 53.1002 77.2875 53.2469C75.1906 53.7563 73.5063 54.2406 72.3344 54.6L68.2719 47.4844C73.1781 44.2812 87.5 35.6875 99.45 35.6875C111.4 35.6875 125.7 44.2812 130.631 47.4813L126.562 54.5938C117.775 51.9349 108.647 50.5665 99.4656 50.5312C94.4092 50.5409 89.3621 50.9652 84.375 51.8C83.7617 51.9019 83.214 52.2433 82.8524 52.7491C82.4908 53.2549 82.3449 53.8836 82.4469 54.4969C82.5488 55.1102 82.8902 55.6579 83.396 56.0195C83.9017 56.3811 84.5304 56.5269 85.1437 56.425C89.8764 55.6282 94.6664 55.2216 99.4656 55.2094C108.6 55.2579 117.674 56.692 126.378 59.4625C127.419 60.5938 131.263 65.4969 131.263 76.2125C131.263 77.7313 131.738 85.8781 132.716 101.116C132.861 103.393 132.538 105.676 131.766 107.823C130.995 109.971 129.791 111.937 128.23 113.601C126.669 115.266 124.783 116.592 122.689 117.499C120.596 118.406 118.338 118.875 116.056 118.875H113.291V113.978C117.903 110.968 121.413 106.54 123.291 101.363V101.344C123.291 101.312 123.291 101.278 123.316 101.247C124.29 98.5402 124.792 95.6861 124.8 92.8094V71.8062C124.801 71.4233 124.709 71.0458 124.531 70.7068C124.352 70.3679 124.094 70.0778 123.777 69.8619C123.461 69.6461 123.096 69.5111 122.716 69.4687C122.335 69.4263 121.95 69.4778 121.594 69.6187C115.291 71.8057 108.439 71.8321 102.119 69.6937C97.7079 68.1568 93.925 65.2117 91.3531 61.3125C91.1761 60.9841 90.9231 60.7028 90.6154 60.4918C90.3077 60.2809 89.9541 60.1464 89.584 60.0996C89.2138 60.0529 88.8379 60.0952 88.4874 60.2229C88.1369 60.3507 87.8219 60.5604 87.5687 60.8344C85.0857 63.4014 82.3274 65.6871 79.3438 67.65C74.4969 70.7938 74.1562 78.375 74.1344 79.2906V92.7906C74.1338 95.6962 74.6382 98.5797 75.625 101.312V101.344C77.4999 106.523 81.0102 110.95 85.625 113.956V118.875L82.8406 118.878ZM99.475 140.947L90.3406 126.528V116.353C93.2674 117.494 96.3807 118.081 99.5219 118.084C102.63 118.08 105.711 117.498 108.606 116.369V126.525L99.475 140.947Z" fill="#278D79"/>
<path d="M88.6 78.3H86.9125C86.2909 78.3 85.6948 78.547 85.2552 78.9865C84.8157 79.4261 84.5688 80.0222 84.5688 80.6438C84.5688 81.2654 84.8157 81.8615 85.2552 82.3011C85.6948 82.7406 86.2909 82.9875 86.9125 82.9875H88.6C89.2216 82.9875 89.8177 82.7406 90.2573 82.3011C90.6968 81.8615 90.9438 81.2654 90.9438 80.6438C90.9438 80.0222 90.6968 79.4261 90.2573 78.9865C89.8177 78.547 89.2216 78.3 88.6 78.3Z" fill="#278D79"/>
<path d="M109.556 82.9875H111.244C111.865 82.9875 112.461 82.7406 112.901 82.3011C113.341 81.8615 113.587 81.2654 113.587 80.6438C113.587 80.0222 113.341 79.4261 112.901 78.9865C112.461 78.547 111.865 78.3 111.244 78.3H109.556C108.935 78.3 108.338 78.547 107.899 78.9865C107.459 79.4261 107.212 80.0222 107.212 80.6438C107.212 81.2654 107.459 81.8615 107.899 82.3011C108.338 82.7406 108.935 82.9875 109.556 82.9875Z" fill="#278D79"/>
<path d="M95.9094 45.3563H97.1062V46.55C97.1062 47.1716 97.3532 47.7678 97.7927 48.2073C98.2322 48.6469 98.8284 48.8938 99.45 48.8938C100.072 48.8938 100.668 48.6469 101.107 48.2073C101.547 47.7678 101.794 47.1716 101.794 46.55V45.3563H102.987C103.609 45.3563 104.205 45.1094 104.645 44.6698C105.084 44.2303 105.331 43.6342 105.331 43.0125C105.331 42.3909 105.084 41.7948 104.645 41.3553C104.205 40.9157 103.609 40.6688 102.987 40.6688H101.794V39.4719C101.794 38.8503 101.547 38.2542 101.107 37.8146C100.668 37.3751 100.072 37.1282 99.45 37.1282C98.8284 37.1282 98.2322 37.3751 97.7927 37.8146C97.3532 38.2542 97.1062 38.8503 97.1062 39.4719V40.6688H95.9094C95.6016 40.6688 95.2968 40.7294 95.0124 40.8472C94.7281 40.965 94.4697 41.1376 94.2521 41.3553C94.0344 41.5729 93.8618 41.8313 93.744 42.1156C93.6262 42.4 93.5656 42.7048 93.5656 43.0125C93.5656 43.3203 93.6262 43.6251 93.744 43.9095C93.8618 44.1938 94.0344 44.4522 94.2521 44.6698C94.4697 44.8875 94.7281 45.0601 95.0124 45.1779C95.2968 45.2957 95.6016 45.3563 95.9094 45.3563Z" fill="#278D79"/>
<path d="M67.9281 165.438C67.3065 165.437 66.7104 165.684 66.2708 166.124C65.8313 166.564 65.5844 167.16 65.5844 167.781V178.656C65.5844 179.278 65.8313 179.874 66.2708 180.314C66.7104 180.753 67.3065 181 67.9281 181C68.5497 181 69.1459 180.753 69.5854 180.314C70.025 179.874 70.2719 179.278 70.2719 178.656V167.781C70.2719 167.16 70.025 166.564 69.5854 166.124C69.1459 165.684 68.5497 165.438 67.9281 165.438Z" fill="#278D79"/>
<path d="M131.022 165.438C130.4 165.437 129.804 165.684 129.365 166.124C128.925 166.564 128.678 167.16 128.678 167.781V178.656C128.678 179.278 128.925 179.874 129.365 180.314C129.804 180.753 130.4 181 131.022 181C131.643 181 132.24 180.753 132.679 180.314C133.119 179.874 133.366 179.278 133.366 178.656V167.781C133.366 167.16 133.119 166.564 132.679 166.124C132.24 165.684 131.643 165.438 131.022 165.438Z" fill="#278D79"/>
<path d="M120.5 136.356C120.196 136.308 119.885 136.32 119.585 136.391C119.285 136.463 119.003 136.593 118.753 136.775C118.504 136.956 118.293 137.184 118.132 137.447C117.971 137.71 117.864 138.002 117.816 138.306L115.747 151.369L109.309 146.797C108.947 146.54 108.519 146.391 108.075 146.368C107.631 146.345 107.19 146.448 106.803 146.667C106.415 146.885 106.098 147.208 105.888 147.6C105.678 147.992 105.583 148.435 105.616 148.878L106.241 157.506L101.803 162.063V151.669C101.803 151.047 101.556 150.451 101.117 150.012C100.677 149.572 100.081 149.325 99.4594 149.325C98.8378 149.325 98.2416 149.572 97.8021 150.012C97.3625 150.451 97.1156 151.047 97.1156 151.669V162.009L92.6781 157.5L93.3031 148.878C93.3353 148.435 93.2408 147.992 93.0306 147.6C92.8204 147.208 92.5032 146.885 92.116 146.667C91.7289 146.448 91.2876 146.345 90.8438 146.368C90.4 146.391 89.9718 146.54 89.6094 146.797L83.1719 151.369L81.25 138.959C81.2018 138.655 81.0941 138.364 80.9332 138.101C80.7723 137.839 80.5612 137.61 80.3121 137.43C80.063 137.249 79.7807 137.119 79.4813 137.047C79.1819 136.975 78.8713 136.963 78.5672 137.011C78.2631 137.059 77.9715 137.167 77.709 137.328C77.4465 137.489 77.2183 137.7 77.0373 137.949C76.8564 138.198 76.7263 138.48 76.6545 138.78C76.5827 139.079 76.5705 139.39 76.6187 139.694L79.175 155.831C79.2364 156.226 79.3979 156.599 79.6441 156.914C79.8902 157.228 80.2129 157.475 80.5813 157.63C80.9498 157.784 81.3517 157.842 81.7488 157.798C82.1459 157.753 82.525 157.608 82.85 157.375L88.2875 153.5L87.9406 158.209C87.9154 158.543 87.9617 158.877 88.0765 159.191C88.1913 159.505 88.3719 159.79 88.6062 160.028L97.1312 168.688V178.656C97.1312 179.278 97.3782 179.874 97.8177 180.314C98.2573 180.753 98.8534 181 99.475 181C100.097 181 100.693 180.753 101.132 180.314C101.572 179.874 101.819 179.278 101.819 178.656V168.778L110.35 160.028C110.581 159.79 110.76 159.506 110.873 159.194C110.986 158.882 111.031 158.55 111.006 158.219L110.659 153.5L116.112 157.372C116.437 157.604 116.817 157.75 117.214 157.795C117.611 157.839 118.013 157.781 118.381 157.626C118.75 157.472 119.072 157.225 119.318 156.91C119.565 156.596 119.726 156.223 119.787 155.828L122.45 139.034C122.545 138.421 122.393 137.795 122.027 137.293C121.662 136.792 121.113 136.455 120.5 136.356Z" fill="#278D79"/>
</g>
<defs>
<clipPath id="clip0_36_54">
<rect width="150" height="150" fill="white" transform="translate(25 31)"/>
</clipPath>
</defs>
</svg>
