<svg width="204" height="204" viewBox="0 0 204 204" fill="none" xmlns="http://www.w3.org/2000/svg">
<rect width="204" height="204" rx="20" fill="#E6F5E7"/>
<path d="M115.833 64.425L98.7083 81.55L122.44 105.282L139.565 88.1569L115.833 64.425Z" fill="#62BEAC"/>
<path d="M169.82 80.0065C145.936 73.0509 130.949 58.0644 123.993 34.1798C123.247 31.6126 120.559 30.1256 117.992 30.8812C115.425 31.6272 113.948 34.3154 114.693 36.8826C115.817 40.7431 117.202 44.3614 118.723 47.8392L77.9827 88.58C76.9994 89.5633 76.4859 90.9195 76.5731 92.3097L78.2491 118.897L50.2037 146.942L45.9558 142.694C44.0619 140.8 41.0006 140.8 39.1067 142.694C37.2128 144.588 37.2128 147.649 39.1067 149.543L54.4566 164.893C55.4059 165.838 56.6459 166.312 57.8811 166.312C59.1162 166.312 60.3611 165.838 61.3056 164.893C63.1995 162.999 63.1995 159.938 61.3056 158.044L57.0528 153.791L85.0981 125.751L111.685 127.427C111.787 127.432 111.889 127.437 111.986 127.437C113.269 127.437 114.5 126.933 115.41 126.017L156.151 85.2765C159.629 86.8023 163.247 88.1828 167.112 89.3114C167.563 89.4422 168.023 89.51 168.464 89.51C170.566 89.51 172.499 88.1344 173.114 86.0176C173.865 83.4408 172.392 80.7525 169.82 80.0065ZM139.571 88.1634L122.443 105.291L110.111 117.623L87.7912 116.218L86.3817 93.8887L98.7139 81.5565L115.837 64.4339L123.407 56.8631C129.36 66.7153 137.285 74.6445 147.137 80.5975L139.571 88.1634Z" fill="#278D79"/>
</svg>
