<svg width="204" height="204" viewBox="0 0 204 204" fill="none" xmlns="http://www.w3.org/2000/svg">
<rect width="204" height="204" rx="20" fill="#E6F5E7"/>
<path d="M146.371 113.484C146.5 113.226 146.627 112.967 146.75 112.709L160.071 84.7367V77.8137L159.145 76.5407C158.97 76.3006 141.59 52.4243 135.701 44.5734C129.18 35.8778 122.9 32.0003 115.339 32.0003C109.441 32.0003 103.453 34.8036 97.548 40.3321C96.1315 41.6634 94.7918 43.0742 93.5356 44.5577C92.2793 43.0741 90.9397 41.6632 89.5232 40.3318C83.6173 34.8033 77.6315 32 71.7325 32C64.1716 32 57.8913 35.8775 51.3699 44.5731C45.4812 52.4243 28.1015 76.3006 27.9264 76.5404L27 77.8137V84.7367L40.3183 112.705C40.4427 112.967 40.5699 113.227 40.7 113.486C44.1506 120.348 49.4678 126.096 56.0401 130.07C62.5967 134.045 70.1181 136.144 77.7851 136.139H109.285C116.952 136.144 124.474 134.045 131.031 130.07C137.603 126.096 142.92 120.347 146.371 113.484ZM77.7857 126.461C65.7893 126.461 54.6277 119.664 49.3508 109.147C49.2519 108.951 49.1548 108.752 49.0581 108.548L36.6779 82.5501V80.9635C40.3676 75.8981 54.0485 57.1317 59.1122 50.3796C64.863 42.7116 68.719 41.6779 71.7325 41.6779C78.7227 41.6779 86.0709 50.2788 88.3077 53.586L89.7455 55.7287H97.3257L98.7635 53.586C100.836 50.4966 108.331 41.6779 115.339 41.6779C118.352 41.6779 122.208 42.7116 127.959 50.3799C133.022 57.1311 146.704 75.8981 150.393 80.9635V82.5501L138.011 108.552C137.916 108.752 137.819 108.951 137.721 109.146C132.443 119.664 121.282 126.461 109.285 126.461H77.7857Z" fill="#278D79"/>
<path d="M114.231 60.825L111.184 64.2709C111.114 64.351 103.831 72.2642 93.5356 72.2642C83.205 72.2642 75.9442 64.3347 75.8867 64.2709L72.8403 60.825L47.5444 80.9937L60.9703 108.076L64.4353 107.581C83.7374 104.822 103.334 104.822 122.636 107.581L126.101 108.076L139.527 80.9937L114.231 60.825ZM120.526 97.5323C102.604 95.2677 84.4675 95.2677 66.5451 97.5323L59.6841 83.692L72.0361 73.8445C76.1417 77.1797 83.7234 81.943 93.5356 81.943C103.348 81.943 110.93 77.1797 115.035 73.8445L127.387 83.6929L120.526 97.5323Z" fill="#278D79"/>
<path d="M125.827 142.655V152.333C133.199 152.324 140.363 149.887 146.212 145.399C152.061 140.911 156.269 134.622 158.187 127.503L148.836 124.997C147.473 130.059 144.481 134.532 140.322 137.723C136.163 140.915 131.069 142.648 125.827 142.655Z" fill="#278D79"/>
<path d="M167.535 130.008C162.598 148.417 145.771 162.011 125.827 162.011V171.689C150.242 171.689 170.84 155.048 176.884 132.513L167.535 130.008Z" fill="#278D79"/>
</svg>
