<svg width="204" height="204" viewBox="0 0 204 204" fill="none" xmlns="http://www.w3.org/2000/svg">
<rect width="204" height="204" rx="20" fill="#E6F5E7"/>
<path d="M154.708 98.9167H145.583V74.5834C145.583 67.8309 140.108 62.4167 133.417 62.4167H109.083V53.2917C109.083 49.2582 107.481 45.3899 104.629 42.5378C101.777 39.6857 97.9085 38.0834 93.875 38.0834C89.8415 38.0834 85.9732 39.6857 83.1211 42.5378C80.269 45.3899 78.6667 49.2582 78.6667 53.2917V62.4167H54.3333C51.1065 62.4167 48.0119 63.6985 45.7302 65.9802C43.4485 68.2619 42.1667 71.3566 42.1667 74.5834V97.7H51.2917C60.4167 97.7 67.7167 105 67.7167 114.125C67.7167 123.25 60.4167 130.55 51.2917 130.55H42.1667V153.667C42.1667 156.894 43.4485 159.988 45.7302 162.27C48.0119 164.552 51.1065 165.833 54.3333 165.833H77.45V156.708C77.45 147.583 84.75 140.283 93.875 140.283C103 140.283 110.3 147.583 110.3 156.708V165.833H133.417C136.643 165.833 139.738 164.552 142.02 162.27C144.301 159.988 145.583 156.894 145.583 153.667V129.333H154.708C158.742 129.333 162.61 127.731 165.462 124.879C168.314 122.027 169.917 118.159 169.917 114.125C169.917 110.092 168.314 106.223 165.462 103.371C162.61 100.519 158.742 98.9167 154.708 98.9167Z" fill="#278D79"/>
</svg>
