<svg width="204" height="204" viewBox="0 0 204 204" fill="none" xmlns="http://www.w3.org/2000/svg">
<rect width="204" height="204" rx="20" fill="#E6F5E7"/>
<path d="M171.48 99.206C171.48 93.6552 168.975 88.4533 164.706 84.9908C164.892 84.1045 164.984 83.2528 164.984 82.4148C164.984 75.5005 159.871 69.758 153.229 68.7689C153.381 67.9746 153.453 67.1955 153.453 66.4193C153.453 59.0581 147.652 53.0438 140.384 52.6617C140.265 52.6421 140.144 52.6255 140.019 52.6255C139.959 52.6255 139.9 52.633 139.838 52.6346C139.777 52.633 139.719 52.6255 139.657 52.6255C138.965 52.6255 138.269 52.6874 137.534 52.8158C136.256 46.0434 130.357 41 123.284 41C115.264 41 108.739 47.5247 108.739 55.5458V155.082C108.739 165.234 116.998 173.49 127.148 173.49C133.882 173.49 139.995 169.847 143.223 164.059C143.947 164.216 144.641 164.313 145.339 164.358C149.722 164.637 153.991 163.201 157.307 160.292C160.623 157.382 162.607 153.355 162.894 148.951C163.013 147.117 162.808 145.276 162.285 143.458C168.017 139.395 171.386 132.961 171.386 125.91C171.386 120.799 169.546 115.891 166.184 111.982C169.567 108.557 171.48 103.976 171.48 99.206ZM166.859 125.913C166.859 131.174 164.47 136 160.374 139.23C157.342 134.404 151.963 131.322 146.139 131.322C144.889 131.322 143.874 132.337 143.874 133.587C143.874 134.837 144.889 135.852 146.139 135.852C151.184 135.852 155.779 139.013 157.588 143.716C158.207 145.359 158.482 147.022 158.375 148.66C158.166 151.855 156.727 154.777 154.32 156.888C151.913 159 148.822 160.05 145.635 159.839C144.738 159.78 143.811 159.586 142.716 159.232C141.598 158.866 140.389 159.419 139.928 160.5C137.746 165.64 132.729 168.962 127.146 168.962C119.494 168.962 113.268 162.736 113.268 155.084V55.5473C113.268 50.0253 117.76 45.5315 123.282 45.5315C128.413 45.5315 132.635 49.4001 133.185 54.4526C129.031 56.8324 126.221 61.3004 126.221 66.4209C126.221 67.6726 127.235 68.6859 128.486 68.6859C129.736 68.6859 130.751 67.6726 130.751 66.4209C130.751 61.3729 134.811 57.2627 139.835 57.1646C144.859 57.2627 148.919 61.3729 148.919 66.4193C148.919 67.3586 148.742 68.331 148.377 69.3956C148.291 69.6462 148.25 69.909 148.255 70.1732C148.256 70.2351 148.259 70.2925 148.265 70.3469C148.256 70.3786 148.25 70.3997 148.25 70.3997C148.072 71.1019 148.241 71.8478 148.705 72.405C149.168 72.9622 149.86 73.2642 150.594 73.2174C150.751 73.2068 150.908 73.1872 151.185 73.1479C156.294 73.1479 160.451 77.3049 160.451 82.4133C160.451 83.277 160.295 84.1634 159.965 85.2053C159.658 86.1641 160.022 87.2105 160.857 87.7723C164.532 90.2471 166.76 94.309 166.918 98.7077C166.918 98.7137 166.917 98.7198 166.917 98.7258C166.917 106.321 160.738 112.502 153.142 112.502C145.547 112.502 139.367 106.321 139.367 98.7258C139.367 97.474 138.352 96.4608 137.102 96.4608C135.851 96.4608 134.837 97.474 134.837 98.7258C134.837 108.82 143.048 117.032 153.142 117.032C156.507 117.032 159.651 116.103 162.362 114.513C165.262 117.669 166.859 121.705 166.859 125.913Z" fill="#278D79"/>
<path d="M87.1932 41.0016C80.1203 41.0016 74.2223 46.045 72.9463 52.8173C72.2094 52.689 71.5133 52.6271 70.8217 52.6271C70.7613 52.6271 70.7024 52.6346 70.6405 52.6361C70.5801 52.6346 70.5212 52.6271 70.4593 52.6271C70.334 52.6271 70.2132 52.6437 70.0939 52.6633C62.8263 53.0453 57.0264 59.0597 57.0264 66.4209C57.0264 67.1971 57.1004 67.9762 57.2514 68.7705C50.6089 69.7595 45.496 75.5021 45.496 82.4164C45.496 83.2529 45.5881 84.1045 45.7739 84.9924C41.5051 88.4548 39 93.6568 39 99.2076C39 103.978 40.9117 108.559 44.2925 111.987C40.9298 115.896 39.0891 120.804 39.0891 125.915C39.0891 132.965 42.4579 139.398 48.1899 143.463C47.6659 145.281 47.462 147.121 47.5828 148.958C47.8697 153.359 49.8524 157.386 53.1683 160.296C56.4843 163.207 60.741 164.643 65.1366 164.363C65.8236 164.317 66.5243 164.218 67.2506 164.062C70.479 169.851 76.5914 173.495 83.326 173.495C93.4763 173.495 101.734 165.237 101.734 155.087V55.5474C101.737 47.5263 95.2128 41.0016 87.1932 41.0016ZM97.2075 155.084C97.2075 162.736 90.9817 168.962 83.3291 168.962C77.7466 168.962 72.7289 165.64 70.5484 160.5C70.1845 159.644 69.351 159.12 68.4631 159.12C68.2306 159.12 67.9935 159.155 67.761 159.232C66.6677 159.586 65.7406 159.78 64.8421 159.839C61.6425 160.048 58.5636 158.999 56.1581 156.888C53.7512 154.777 52.3122 151.855 52.1038 148.66C51.989 146.908 52.2925 145.133 53.0068 143.383C53.0173 143.357 53.0143 143.328 53.0234 143.303C55.0498 138.688 59.4031 135.824 64.4948 135.824C65.7466 135.824 66.7598 134.809 66.7598 133.559C66.7598 132.308 65.7466 131.294 64.4948 131.294C58.5485 131.294 53.1683 134.324 50.0774 139.204C45.9988 135.975 43.6191 131.161 43.6191 125.913C43.6191 121.705 45.2197 117.669 48.1159 114.514C50.8278 116.104 53.9732 117.033 57.3374 117.033C67.4318 117.033 75.6432 108.822 75.6432 98.7274C75.6432 97.4756 74.63 96.4624 73.3782 96.4624C72.1264 96.4624 71.1132 97.4756 71.1132 98.7274C71.1132 106.323 64.9342 112.503 57.3374 112.503C49.7406 112.503 43.5617 106.323 43.5617 98.7274C43.5617 98.7244 43.5602 98.7213 43.5602 98.7183C43.7157 94.3167 45.943 90.2517 49.6198 87.7738C50.4549 87.2121 50.8173 86.1672 50.5122 85.2083C50.18 84.1649 50.026 83.2786 50.026 82.4148C50.026 77.3171 54.1649 73.1661 59.3805 73.1661C59.391 73.1661 59.4031 73.1661 59.4137 73.1661C59.5692 73.1872 59.7248 73.2069 59.8833 73.2174C60.6157 73.2627 61.3148 72.9592 61.7768 72.399C62.2404 71.8373 62.4065 71.0883 62.2208 70.3847C62.2208 70.3832 62.2162 70.3635 62.2087 70.3379C62.2132 70.285 62.2178 70.2367 62.2193 70.1944C62.2268 69.9226 62.186 69.6523 62.097 69.3956C61.7315 68.3281 61.5549 67.3541 61.5549 66.4179C61.5549 61.3715 65.6137 57.2598 70.639 57.1631C75.6643 57.2613 79.7232 61.3715 79.7232 66.4194C79.7232 67.6712 80.7364 68.6844 81.9882 68.6844C83.24 68.6844 84.2532 67.6712 84.2532 66.4194C84.2532 61.299 81.4431 56.8309 77.2891 54.4512C77.8387 49.3987 82.0607 45.5301 87.1917 45.5301C92.7137 45.5301 97.206 50.0238 97.206 55.5459L97.2075 155.084Z" fill="#278D79"/>
</svg>
