<svg width="204" height="204" viewBox="0 0 204 204" fill="none" xmlns="http://www.w3.org/2000/svg">
<rect width="204" height="204" rx="20" fill="#E6F5E7"/>
<g clip-path="url(#clip0_36_46)">
<path d="M160.322 116.025C155.49 110.823 151.791 104.677 149.456 97.9733C149.622 83.6166 144.075 69.7821 134.037 59.5134C123.998 49.2447 110.29 43.3829 95.9285 43.2175C81.5666 43.0521 67.7272 48.5966 57.4548 58.6314C47.1824 68.6662 41.3185 82.3692 41.153 96.7259C39.4637 115.554 53.2135 131.818 61.1656 146.992C63.2253 152.602 64.4162 158.493 64.6972 164.462C64.9622 167.618 66.4078 170.559 68.7457 172.698C71.0836 174.836 74.142 176.016 77.311 176H84.6273C87.9853 175.995 91.2045 174.66 93.5789 172.286C95.9534 169.913 97.2894 166.695 97.2941 163.338V149.381H113.987C120.173 149.376 126.104 146.918 130.478 142.547C134.853 138.175 137.313 132.247 137.319 126.063C137.319 125.533 137.108 125.024 136.733 124.649C136.358 124.273 135.849 124.063 135.318 124.063H116.624C112.806 124.063 109.047 125 105.676 126.792C102.306 128.585 99.4276 131.177 97.2941 134.342V112.065H105.958C112.149 112.061 118.085 109.599 122.46 105.22C126.835 100.842 129.292 94.9064 129.291 88.7179C129.291 88.1883 129.081 87.6804 128.707 87.3053C128.333 86.9303 127.825 86.7189 127.295 86.7173H116.624C112.804 86.7214 109.044 87.663 105.674 89.4594C102.304 91.2558 99.426 93.852 97.2941 97.0201V91.4068C97.2879 85.2229 94.8277 79.294 90.4534 74.9212C86.0791 70.5485 80.148 68.0892 73.9618 68.0829H65.9627C65.4324 68.0845 64.9243 68.2958 64.5493 68.6706C64.1743 69.0454 63.963 69.5534 63.9614 70.0835C63.963 76.2705 66.4212 82.2039 70.796 86.5805C75.1708 90.957 81.1045 93.4188 87.2937 93.425H93.2916V115.696C91.159 112.529 88.2812 109.934 84.9109 108.138C81.5406 106.343 77.7808 105.402 73.9618 105.399H57.9636C57.4333 105.4 56.9252 105.612 56.5502 105.986C56.1752 106.361 55.9639 106.869 55.9623 107.399C55.9685 113.583 58.4288 119.512 62.8031 123.885C67.1774 128.258 73.1084 130.717 79.2946 130.723H93.2916V163.338C93.29 165.634 92.3767 167.837 90.7522 169.46C89.1276 171.084 86.9248 171.997 84.6273 171.999H77.3228C75.155 172.011 73.0625 171.205 71.4629 169.743C69.8634 168.28 68.8746 166.268 68.6938 164.109C68.2851 152.331 64.1766 140.982 56.9512 131.671C50.9197 124.47 46.9958 115.744 45.6129 106.455C44.2299 97.1659 45.4416 87.6756 49.1142 79.0316C52.7868 70.3876 58.7774 62.9262 66.4247 57.4711C74.072 52.0161 83.0785 48.7795 92.4499 48.1188C99.2589 47.7653 106.069 48.7966 112.468 51.1503C118.866 53.504 124.721 57.1312 129.676 61.8123C134.632 66.4934 138.586 72.1311 141.299 78.3841C144.012 84.6371 145.427 91.3753 145.46 98.191C147.644 105.86 151.702 112.866 157.267 118.579C158.288 119.639 158.874 121.044 158.909 122.515C158.862 122.78 158.715 123.604 157.202 124.48C153.722 126.423 150.118 128.135 146.413 129.605C145.995 129.767 145.643 130.064 145.415 130.449C145.187 130.834 145.094 131.285 145.154 131.729C146 138.038 146.071 144.426 145.365 150.752C144.777 153.747 138.026 155.759 128.52 155.759C127.36 155.657 126.193 155.804 125.096 156.191C123.999 156.579 122.997 157.198 122.16 158.005C121.323 158.813 120.669 159.792 120.243 160.874C119.817 161.956 119.629 163.118 119.69 164.279V173.976C119.718 174.487 119.941 174.968 120.313 175.32C120.684 175.672 121.177 175.868 121.689 175.868C122.201 175.868 122.693 175.672 123.065 175.32C123.437 174.968 123.659 174.487 123.687 173.976V164.303C123.643 163.672 123.74 163.039 123.971 162.45C124.202 161.861 124.562 161.331 125.023 160.898C125.485 160.466 126.037 160.141 126.64 159.948C127.243 159.756 127.881 159.699 128.508 159.784C152.735 159.66 150.622 151.14 149.291 132.771C156.131 129.717 168.45 125.887 160.322 116.025ZM116.624 128.058H133.187C132.687 132.804 130.45 137.198 126.906 140.397C123.362 143.595 118.761 145.372 113.987 145.386H97.3942C97.8953 140.635 100.137 136.236 103.687 133.037C107.236 129.838 111.844 128.065 116.624 128.058ZM116.624 90.7419H125.17C124.669 95.4927 122.428 99.8903 118.878 103.088C115.328 106.286 110.72 108.059 105.941 108.064H97.3942C97.8967 103.314 100.138 98.9171 103.688 95.7194C107.238 92.5216 111.845 90.7488 116.624 90.7419ZM87.2937 89.4063C82.5172 89.3965 77.9129 87.6224 74.3656 84.4249C70.8182 81.2275 68.5781 76.8323 68.0758 72.084H73.9618C78.7407 72.0896 83.3486 73.8619 86.8988 77.0599C90.4489 80.2579 92.6903 84.6555 93.1915 89.4063H87.2937ZM79.2946 126.728C74.5152 126.721 69.9072 124.947 66.3572 121.748C62.8072 118.549 60.5661 114.151 60.0649 109.4H73.9618C78.7412 109.407 83.3492 111.181 86.8992 114.379C90.4492 117.578 92.6903 121.977 93.1915 126.728H79.2946Z" fill="#278D79"/>
</g>
<defs>
<clipPath id="clip0_36_46">
<rect width="122" height="132" fill="white" transform="translate(41 44)"/>
</clipPath>
</defs>
</svg>
