<svg width="156" height="156" viewBox="0 0 156 156" fill="none" xmlns="http://www.w3.org/2000/svg">
<rect y="0.532349" width="155.468" height="155.468" rx="13.7097" fill="#B0C997"/>
<path d="M63.3165 75.8661H59.7679V77.6739H63.2495V79.736H59.7679V83.1775H57.6253V73.8039H63.3165V75.8661ZM69.0549 83.365C66.3633 83.365 64.1806 81.2492 64.1806 78.4907C64.1806 75.7322 66.3633 73.6164 69.0549 73.6164C71.7464 73.6164 73.9291 75.7322 73.9291 78.4907C73.9291 81.2492 71.7464 83.365 69.0549 83.365ZM69.0549 81.276C70.5814 81.276 71.7866 80.1645 71.7866 78.4907C71.7866 76.8168 70.5814 75.7054 69.0549 75.7054C67.5283 75.7054 66.3231 76.8168 66.3231 78.4907C66.3231 80.1645 67.5283 81.276 69.0549 81.276ZM80.893 73.8039V75.8661H78.4826V83.1775H76.3401V75.8661H73.9297V73.8039H80.893ZM85.7673 83.365C83.0757 83.365 80.893 81.2492 80.893 78.4907C80.893 75.7322 83.0757 73.6164 85.7673 73.6164C88.4588 73.6164 90.6415 75.7322 90.6415 78.4907C90.6415 81.2492 88.4588 83.365 85.7673 83.365ZM85.7673 81.276C87.2938 81.276 88.499 80.1645 88.499 78.4907C88.499 76.8168 87.2938 75.7054 85.7673 75.7054C84.2407 75.7054 83.0355 76.8168 83.0355 78.4907C83.0355 80.1645 84.2407 81.276 85.7673 81.276ZM94.7886 83.365C92.8202 83.365 91.5614 82.4276 91.0392 81.0483L92.8871 79.9771C93.2219 80.7537 93.7977 81.276 94.8556 81.276C95.8733 81.276 96.1277 80.8743 96.1277 80.5127C96.1277 79.9369 95.5921 79.7093 94.186 79.3209C92.7934 78.9326 91.4275 78.263 91.4275 76.4687C91.4275 74.6609 92.9541 73.6164 94.5744 73.6164C96.1143 73.6164 97.3195 74.3529 98.0024 75.7322L96.1946 76.7901C95.8733 76.1205 95.4314 75.7054 94.5744 75.7054C93.9048 75.7054 93.57 76.0402 93.57 76.4151C93.57 76.8436 93.7977 77.1382 95.2573 77.5801C96.6767 78.0086 98.2702 78.5041 98.2702 80.4859C98.2702 82.2937 96.824 83.365 94.7886 83.365Z" fill="#278D79"/>
</svg>
