<svg width="416" height="416" viewBox="0 0 416 416" fill="none" xmlns="http://www.w3.org/2000/svg">
<rect width="416" height="416" rx="50" fill="#B0C997"/>
<path d="M155.471 206.691V199.17H134.716V233.356H142.529V220.805H155.227V213.284H142.529V206.691H155.471ZM176.4 234.04C186.216 234.04 194.176 226.324 194.176 216.263C194.176 206.203 186.216 198.486 176.4 198.486C166.583 198.486 158.623 206.203 158.623 216.263C158.623 226.324 166.583 234.04 176.4 234.04ZM176.4 226.421C170.832 226.421 166.437 222.368 166.437 216.263C166.437 210.159 170.832 206.105 176.4 206.105C181.967 206.105 186.362 210.159 186.362 216.263C186.362 222.368 181.967 226.421 176.4 226.421ZM219.574 199.17H194.179V206.691H202.969V233.356H210.783V206.691H219.574V199.17ZM237.351 234.04C247.167 234.04 255.127 226.324 255.127 216.263C255.127 206.203 247.167 198.486 237.351 198.486C227.534 198.486 219.574 206.203 219.574 216.263C219.574 226.324 227.534 234.04 237.351 234.04ZM237.351 226.421C231.783 226.421 227.388 222.368 227.388 216.263C227.388 210.159 231.783 206.105 237.351 206.105C242.918 206.105 247.314 210.159 247.314 216.263C247.314 222.368 242.918 226.421 237.351 226.421ZM270.252 234.04C277.675 234.04 282.95 230.133 282.95 223.54C282.95 216.312 277.138 214.505 271.961 212.942C266.638 211.331 265.808 210.256 265.808 208.693C265.808 207.326 267.029 206.105 269.471 206.105C272.596 206.105 274.208 207.619 275.38 210.061L281.973 206.203C279.482 201.172 275.087 198.486 269.471 198.486C263.561 198.486 257.994 202.296 257.994 208.889C257.994 215.433 262.975 217.875 268.054 219.291C273.182 220.707 275.136 221.538 275.136 223.638C275.136 224.956 274.208 226.421 270.496 226.421C266.638 226.421 264.538 224.517 263.317 221.684L256.578 225.591C258.482 230.621 263.073 234.04 270.252 234.04Z" fill="#278D79"/>
</svg>
