<svg width="567" height="567" viewBox="0 0 567 567" fill="none" xmlns="http://www.w3.org/2000/svg">
<rect width="567" height="567" rx="50" fill="#B0C997"/>
<path d="M230.919 274.335V266.814H210.163V301H217.977V288.449H230.675V280.928H217.977V274.335H230.919ZM251.847 301.684C261.663 301.684 269.624 293.967 269.624 283.907C269.624 273.847 261.663 266.13 251.847 266.13C242.031 266.13 234.07 273.847 234.07 283.907C234.07 293.967 242.031 301.684 251.847 301.684ZM251.847 294.065C246.28 294.065 241.884 290.012 241.884 283.907C241.884 277.802 246.28 273.749 251.847 273.749C257.414 273.749 261.81 277.802 261.81 283.907C261.81 290.012 257.414 294.065 251.847 294.065ZM295.021 266.814H269.626V274.335H278.417V301H286.231V274.335H295.021V266.814ZM312.798 301.684C322.614 301.684 330.575 293.967 330.575 283.907C330.575 273.847 322.614 266.13 312.798 266.13C302.982 266.13 295.021 273.847 295.021 283.907C295.021 293.967 302.982 301.684 312.798 301.684ZM312.798 294.065C307.231 294.065 302.835 290.012 302.835 283.907C302.835 277.802 307.231 273.749 312.798 273.749C318.366 273.749 322.761 277.802 322.761 283.907C322.761 290.012 318.366 294.065 312.798 294.065ZM345.699 301.684C353.123 301.684 358.397 297.777 358.397 291.184C358.397 283.956 352.586 282.149 347.409 280.586C342.086 278.974 341.255 277.9 341.255 276.337C341.255 274.97 342.476 273.749 344.918 273.749C348.044 273.749 349.655 275.263 350.827 277.705L357.42 273.847C354.93 268.816 350.534 266.13 344.918 266.13C339.009 266.13 333.441 269.94 333.441 276.533C333.441 283.077 338.423 285.519 343.502 286.935C348.63 288.351 350.583 289.181 350.583 291.281C350.583 292.6 349.655 294.065 345.944 294.065C342.086 294.065 339.986 292.16 338.765 289.328L332.025 293.235C333.93 298.265 338.52 301.684 345.699 301.684Z" fill="#278D79"/>
</svg>
